<?xml version="1.0" standalone="no"?>
<!DOCTYPE svg PUBLIC "-//W3C//DTD SVG 20010904//EN"
 "http://www.w3.org/TR/2001/REC-SVG-20010904/DTD/svg10.dtd">
<svg version="1.0" xmlns="http://www.w3.org/2000/svg"
 width="700.000000pt" height="700.000000pt" viewBox="0 0 700.000000 700.000000"
 preserveAspectRatio="xMidYMid meet">
<metadata>
Created by potrace 1.11, written by Peter Selinger 2001-2013
</metadata>
<g transform="translate(0.000000,700.000000) scale(0.100000,-0.100000)"
fill="#000000" stroke="none">
<path d="M3309 6996 c-2 -2 -33 -7 -69 -10 -36 -3 -78 -8 -95 -11 -16 -3 -57
-10 -90 -16 -98 -17 -302 -76 -415 -119 -454 -177 -862 -507 -1126 -910 -124
-190 -225 -406 -289 -617 -39 -127 -39 -129 -65 -273 -10 -58 -22 -123 -26
-145 -4 -22 -8 -628 -10 -1346 l-4 -1306 1122 -1122 1121 -1121 1261 0 1261 0
-1 2352 c-1 2109 -4 2469 -19 2558 -2 14 -7 45 -10 70 -10 81 -44 225 -79 342
-204 672 -718 1235 -1372 1502 -168 69 -404 133 -549 151 -32 4 -68 9 -80 12
-24 6 -460 14 -466 9z m401 -1133 c552 -89 985 -549 1045 -1113 5 -47 10
-3338 6 -3597 l-1 -33 -418 0 -419 0 -840 841 -841 841 0 957 c1 965 3 1039
38 1171 55 212 163 406 312 561 64 66 208 189 222 189 3 0 31 16 63 35 119 72
290 131 433 151 25 4 46 8 48 9 11 9 274 1 352 -12z"/>
</g>
</svg>
