<svg width="514" height="514" viewBox="0 0 514 514" fill="none" xmlns="http://www.w3.org/2000/svg">
<g clip-path="url(#clip0_18_5123)">
<path fill-rule="evenodd" clip-rule="evenodd" d="M425.324 171.742C425.324 149.318 420.973 127.114 412.52 106.397C404.067 85.6806 391.677 66.8569 376.058 51.0009C360.438 35.145 341.896 22.5674 321.488 13.9862C301.08 5.40502 279.208 0.988342 257.119 0.988342C235.03 0.988342 213.157 5.40502 192.749 13.9862C172.342 22.5674 153.799 35.145 138.18 51.0009C122.561 66.8569 110.171 85.6806 101.718 106.397C93.2645 127.114 88.9137 149.318 88.9137 171.742V352.741L247.026 513.249H425.324V171.742ZM344.585 171.742C344.585 160.082 342.323 148.536 337.927 137.763C333.532 126.99 327.089 117.202 318.967 108.957C310.845 100.712 301.203 94.1712 290.591 89.709C279.979 85.2467 268.605 82.9501 257.119 82.9501C245.632 82.9501 234.259 85.2467 223.647 89.709C213.035 94.1712 203.393 100.712 195.271 108.957C187.148 117.202 180.706 126.99 176.31 137.763C171.915 148.536 169.652 160.082 169.652 171.742V318.59L280.667 431.287H344.585V171.742Z" fill="#F2059F"/>
</g>
<defs>
<clipPath id="clip0_18_5123">
<rect width="514" height="514" fill="white"/>
</clipPath>
</defs>
</svg>
