<svg width="498" height="150" viewBox="0 0 498 150" fill="none" xmlns="http://www.w3.org/2000/svg">
<path d="M486 78V102H450V114L486 150H498V78H486ZM486 132L468 114H486V132Z" fill="#ffffff"/>
<path d="M432 102H396V138L408 150H444V138H414L408 132H444V114L432 102ZM408 120V114H426L432 120H408Z" fill="#ffffff"/>
<path d="M354 150V114H360L378 132V150H390V126L366 102H342V114V150H354Z" fill="#ffffff"/>
<path d="M300 102V90H318L324 96H336V90L324 78H288V150H300V114H324V150H336V102H300Z" fill="#ffffff"/>
<path d="M270 102H234V138L246 150H282V138H252L246 132H282V114L270 102ZM246 120V114H264L270 120H246Z" fill="#ffffff"/>
<path d="M216 78V102H180V114L216 150H228V78H216ZM216 132L198 114H216V132Z" fill="#ffffff"/>
<path d="M150 150V114H156L174 132V150H186V126L162 102H138V114V150H150Z" fill="#ffffff"/>
<path d="M120 102V138H114L96 120V102H84V126L108 150H132V102H120Z" fill="#ffffff"/>
<path d="M468 24C466.409 24 464.883 24.6321 463.757 25.7574C462.632 26.8826 462 28.4087 462 30V60H450C446.817 60 443.765 58.7357 441.515 56.4853C439.264 54.2348 438 51.1826 438 48V30C438 28.4087 437.368 26.8826 436.243 25.7574C435.117 24.6321 433.591 24 432 24C430.409 24 428.883 24.6321 427.757 25.7574C426.632 26.8826 426 28.4087 426 30V48C426 54.3652 428.529 60.4697 433.029 64.9706C437.53 69.4714 443.635 72 450 72H462C462 75.1826 460.736 78.2348 458.485 80.4853C456.235 82.7357 453.183 84 450 84H444C442.409 84 440.883 84.6321 439.757 85.7574C438.632 86.8826 438 88.4087 438 90C438 91.5913 438.632 93.1174 439.757 94.2426C440.883 95.3679 442.409 96 444 96H450C456.365 96 462.47 93.4714 466.971 88.9706C471.471 84.4697 474 78.3652 474 72V29.8575C473.963 28.291 473.314 26.8013 472.193 25.7067C471.072 24.6121 469.567 23.9996 468 24Z" fill="#ffffff"/>
<path d="M420 72C413.635 72 407.53 69.4714 403.029 64.9706C398.529 60.4697 396 54.3652 396 48V6C396 4.4087 396.632 2.88258 397.757 1.75736C398.883 0.632141 400.409 0 402 0C403.591 0 405.117 0.632141 406.243 1.75736C407.368 2.88258 408 4.4087 408 6V48C408 51.1826 409.264 54.2348 411.515 56.4853C413.765 58.7357 416.817 60 420 60C421.591 60 423.117 60.6321 424.243 61.7574C425.368 62.8826 426 64.4087 426 66C426 67.5913 425.368 69.1174 424.243 70.2426C423.117 71.3679 421.591 72 420 72Z" fill="#ffffff"/>
<path d="M390 72C383.635 72 377.53 69.4714 373.029 64.9706C368.529 60.4697 366 54.3652 366 48V6C366 4.4087 366.632 2.88258 367.757 1.75736C368.883 0.632141 370.409 0 372 0C373.591 0 375.117 0.632141 376.243 1.75736C377.368 2.88258 378 4.4087 378 6V48C378 51.1826 379.264 54.2348 381.515 56.4853C383.765 58.7357 386.817 60 390 60C391.591 60 393.117 60.6321 394.243 61.7574C395.368 62.8826 396 64.4087 396 66C396 67.5913 395.368 69.1174 394.243 70.2426C393.117 71.3679 391.591 72 390 72Z" fill="#ffffff"/>
<path d="M336 24C329.635 24 323.53 26.5286 319.029 31.0294C314.529 35.5303 312 41.6348 312 48C312 54.3652 314.529 60.4697 319.029 64.9706C323.53 69.4714 329.635 72 336 72C337.591 72 339.117 71.3679 340.243 70.2426C341.368 69.1174 342 67.5913 342 66C342 64.4087 341.368 62.8826 340.243 61.7574C339.117 60.6321 337.591 60 336 60C333.627 60 331.307 59.2962 329.333 57.9776C327.36 56.6591 325.822 54.7849 324.913 52.5922C324.005 50.3995 323.768 47.9867 324.231 45.6589C324.694 43.3311 325.836 41.193 327.515 39.5147C329.193 37.8365 331.331 36.6936 333.659 36.2306C335.987 35.7676 338.399 36.0052 340.592 36.9134C342.785 37.8217 344.659 39.3598 345.978 41.3332C347.296 43.3065 348 45.6266 348 48V66C348 67.5913 348.632 69.1174 349.757 70.2426C350.883 71.3679 352.409 72 354 72C355.591 72 357.117 71.3679 358.243 70.2426C359.368 69.1174 360 67.5913 360 66V48C360 41.6348 357.471 35.5303 352.971 31.0294C348.47 26.5286 342.365 24 336 24Z" fill="#ffffff"/>
<path d="M306 60H288C284.817 60 281.765 58.7357 279.515 56.4853C277.264 54.2348 276 51.1826 276 48C276 44.8174 277.264 41.7652 279.515 39.5147C281.765 37.2643 284.817 36 288 36H306C307.591 36 309.117 35.3679 310.243 34.2426C311.368 33.1174 312 31.5913 312 30C312 28.4087 311.368 26.8826 310.243 25.7574C309.117 24.6321 307.591 24 306 24H288C281.635 24 275.53 26.5286 271.029 31.0294C266.529 35.5303 264 41.6348 264 48C264 54.3652 266.529 60.4697 271.029 64.9706C275.53 69.4714 281.635 72 288 72H306C307.591 72 309.117 71.3679 310.243 70.2426C311.368 69.1174 312 67.5913 312 66C312 64.4087 311.368 62.8826 310.243 61.7574C309.117 60.6321 307.591 60 306 60Z" fill="#ffffff"/>
<path d="M252 24C250.409 24 248.883 24.6321 247.757 25.7574C246.632 26.8826 246 28.4087 246 30V66C246 67.5913 246.632 69.1174 247.757 70.2426C248.883 71.3679 250.409 72 252 72C253.591 72 255.117 71.3679 256.243 70.2426C257.368 69.1174 258 67.5913 258 66V30C258 28.4087 257.368 26.8826 256.243 25.7574C255.117 24.6321 253.591 24 252 24Z" fill="#ffffff"/>
<path d="M252 12C255.314 12 258 9.31371 258 6C258 2.68629 255.314 0 252 0C248.686 0 246 2.68629 246 6C246 9.31371 248.686 12 252 12Z" fill="#ffffff"/>
<path d="M216 23.9289H204V5.9291C203.981 4.33782 203.331 2.81922 202.193 1.70738C201.629 1.15685 200.962 0.722755 200.231 0.429875C199.499 0.136994 198.717 -0.00893351 197.929 0.000423059C196.338 0.0193195 194.819 0.669577 193.707 1.80814C192.596 2.94671 191.982 4.48032 192 6.0716V66.0709C192.019 67.6622 192.67 69.1808 193.808 70.2926C194.947 71.4045 196.48 72.0185 198.072 71.9996C199.663 71.9807 201.182 71.3304 202.293 70.1919C203.405 69.0533 204.019 67.5197 204 65.9284V35.9287H216C219.183 35.9287 222.235 37.193 224.485 39.4434C226.736 41.6938 228 44.746 228 47.9286V65.9284C228 67.5197 228.632 69.0458 229.757 70.171C230.883 71.2962 232.409 71.9283 234 71.9283C235.591 71.9283 237.117 71.2962 238.243 70.171C239.368 69.0458 240 67.5197 240 65.9284V47.9286C240 41.5635 237.471 35.4591 232.971 30.9582C228.47 26.4574 222.365 23.9289 216 23.9289Z" fill="#ffffff"/>
<path d="M162 24C168.365 24 174.47 26.5286 178.971 31.0294C183.471 35.5303 186 41.6348 186 48C186 54.3652 183.471 60.4697 178.971 64.9706C174.47 69.4714 168.365 72 162 72C160.409 72 158.883 71.3679 157.757 70.2426C156.632 69.1174 156 67.5913 156 66C156 64.4087 156.632 62.8826 157.757 61.7574C158.883 60.6321 160.409 60 162 60C164.373 60 166.693 59.2962 168.667 57.9776C170.64 56.6591 172.178 54.7849 173.087 52.5922C173.995 50.3995 174.232 47.9867 173.769 45.6589C173.306 43.3311 172.164 41.193 170.485 39.5147C168.807 37.8365 166.669 36.6936 164.341 36.2306C162.013 35.7676 159.601 36.0052 157.408 36.9134C155.215 37.8217 153.341 39.3598 152.022 41.3332C150.704 43.3065 150 45.6266 150 48V90C150 91.5913 149.368 93.1174 148.243 94.2426C147.117 95.3679 145.591 96 144 96C142.409 96 140.883 95.3679 139.757 94.2426C138.632 93.1174 138 91.5913 138 90V48C138 41.6348 140.529 35.5303 145.029 31.0294C149.53 26.5286 155.635 24 162 24V24Z" fill="#ffffff"/>
<path d="M108 24C101.635 24 95.5303 26.5286 91.0294 31.0294C86.5286 35.5303 84 41.6348 84 48C84 54.3652 86.5286 60.4697 91.0294 64.9706C95.5303 69.4714 101.635 72 108 72C109.591 72 111.117 71.3679 112.243 70.2426C113.368 69.1174 114 67.5913 114 66C114 64.4087 113.368 62.8826 112.243 61.7574C111.117 60.6321 109.591 60 108 60C105.627 60 103.307 59.2962 101.333 57.9776C99.3598 56.6591 97.8217 54.7849 96.9134 52.5922C96.0052 50.3995 95.7676 47.9867 96.2306 45.6589C96.6936 43.3311 97.8365 41.193 99.5147 39.5147C101.193 37.8365 103.331 36.6936 105.659 36.2306C107.987 35.7676 110.399 36.0052 112.592 36.9134C114.785 37.8217 116.659 39.3598 117.978 41.3332C119.296 43.3065 120 45.6266 120 48V66C120 67.5913 120.632 69.1174 121.757 70.2426C122.883 71.3679 124.409 72 126 72C127.591 72 129.117 71.3679 130.243 70.2426C131.368 69.1174 132 67.5913 132 66V48C132 41.6348 129.471 35.5303 124.971 31.0294C120.47 26.5286 114.365 24 108 24Z" fill="#ffffff"/>
<path d="M78 24C71.6348 24 65.5303 26.5286 61.0294 31.0294C56.5286 35.5303 54 41.6348 54 48V66C54 67.5913 54.6321 69.1174 55.7574 70.2426C56.8826 71.3679 58.4087 72 60 72C61.5913 72 63.1174 71.3679 64.2426 70.2426C65.3679 69.1174 66 67.5913 66 66V48C66 44.8174 67.2643 41.7652 69.5147 39.5147C71.7652 37.2643 74.8174 36 78 36C79.5913 36 81.1174 35.3679 82.2426 34.2426C83.3679 33.1174 84 31.5913 84 30C84 28.4087 83.3679 26.8826 82.2426 25.7574C81.1174 24.6321 79.5913 24 78 24Z" fill="#ffffff"/>
<path d="M24 24C17.6348 24 11.5303 26.5286 7.02944 31.0294C2.52857 35.5303 0 41.6348 0 48C0 54.3652 2.52857 60.4697 7.02944 64.9706C11.5303 69.4714 17.6348 72 24 72C25.5913 72 27.1174 71.3679 28.2426 70.2426C29.3679 69.1174 30 67.5913 30 66C30 64.4087 29.3679 62.8826 28.2426 61.7574C27.1174 60.6321 25.5913 60 24 60C21.6266 60 19.3065 59.2962 17.3332 57.9776C15.3598 56.6591 13.8217 54.7849 12.9134 52.5922C12.0052 50.3995 11.7676 47.9867 12.2306 45.6589C12.6936 43.3311 13.8365 41.193 15.5147 39.5147C17.193 37.8365 19.3311 36.6936 21.6589 36.2306C23.9867 35.7676 26.3995 36.0052 28.5922 36.9134C30.7849 37.8217 32.6591 39.3598 33.9776 41.3332C35.2962 43.3065 36 45.6266 36 48V72C36 75.1826 34.7357 78.2348 32.4853 80.4853C30.2348 82.7357 27.1826 84 24 84H18C16.4087 84 14.8826 84.6321 13.7574 85.7574C12.6321 86.8826 12 88.4087 12 90C12 91.5913 12.6321 93.1174 13.7574 94.2426C14.8826 95.3679 16.4087 96 18 96H24C30.3652 96 36.4697 93.4714 40.9706 88.9706C45.4714 84.4697 48 78.3652 48 72V48C48 41.6348 45.4714 35.5303 40.9706 31.0294C36.4697 26.5286 30.3652 24 24 24Z" fill="#ffffff"/>
</svg>
